<?xml version="1.0" standalone="no"?>
<!DOCTYPE svg PUBLIC "-//W3C//DTD SVG 20010904//EN"
 "http://www.w3.org/TR/2001/REC-SVG-20010904/DTD/svg10.dtd">
<svg
  version="1.0"
  xmlns="http://www.w3.org/2000/svg"
  width="742.833729pt"
  height="1422.500000pt"
  viewBox="0 0 742.833729 1422.500000"
  preserveAspectRatio="xMidYMid meet"
>
  <g
    transform="translate(-644.026006,1711.000000) scale(0.100000,-0.100000)"
    fill="#000000"
    stroke="none"
  >
    <path
      d="M9440 17093 c-92 -33 -195 -115 -246 -195 -47 -74 -76 -184 -78 -293
-2 -192 62 -323 216 -442 42 -32 58 -51 58 -68 0 -13 -40 -104 -89 -202 -101
-202 -137 -291 -124 -304 5 -5 31 -1 63 10 49 17 216 65 370 108 30 8 75 20
100 27 25 7 88 25 141 39 178 48 260 83 330 138 21 17 59 33 90 40 30 6 71 15
91 20 20 5 93 14 163 19 69 5 129 11 133 14 4 2 95 12 204 21 182 16 204 16
299 1 56 -9 135 -26 176 -38 l74 -21 67 23 c57 20 94 25 244 30 116 4 182 10
190 18 20 20 -9 59 -137 187 -66 66 -128 129 -138 141 -19 23 -22 8 34 204 28
101 24 266 -10 351 -42 110 -140 189 -234 189 -98 0 -190 -74 -333 -267 l-85
-115 -162 9 c-203 10 -546 10 -699 0 l-116 -8 -69 88 c-161 208 -270 285 -408
290 -45 2 -86 -3 -115 -14z"
    />
    <path
      d="M11849 15911 c-137 -29 -202 -149 -178 -329 15 -106 114 -257 209
-317 121 -76 291 -70 360 13 63 77 130 277 130 390 0 21 7 47 15 58 16 21 20
74 6 74 -5 0 -28 18 -50 39 -63 61 -111 73 -296 77 -88 1 -176 -1 -196 -5z"
    />
    <path
      d="M10855 15890 c-87 -9 -178 -39 -220 -72 -55 -43 -65 -108 -44 -283
21 -177 68 -296 131 -335 107 -65 357 -40 440 44 49 50 113 196 158 360 21 75
21 80 5 122 -23 60 -90 125 -151 146 -59 21 -209 30 -319 18z"
    />
    <path
      d="M10145 15655 c-80 -21 -193 -48 -380 -90 -59 -13 -164 -36 -255 -55
-25 -5 -74 -16 -110 -24 -36 -8 -105 -24 -153 -35 -49 -11 -99 -27 -112 -35
-42 -27 -94 -199 -171 -556 -19 -91 -56 -257 -81 -370 -25 -113 -49 -221 -53
-240 -28 -131 -74 -263 -121 -344 -57 -100 -52 -108 40 -71 93 38 189 45 344
23 73 -9 168 -22 212 -28 226 -29 305 -41 470 -69 210 -37 318 -63 383 -93
101 -47 269 -180 570 -453 55 -50 115 -86 137 -83 25 4 75 100 133 258 52 141
84 207 117 243 45 47 40 52 150 -158 129 -246 236 -554 391 -1130 14 -49 32
-115 40 -145 24 -84 28 -99 89 -335 30 -121 60 -238 64 -260 37 -172 74 -355
100 -495 46 -249 52 -288 91 -565 35 -252 53 -586 47 -845 -7 -230 -14 -275
-64 -359 -45 -77 -453 -611 -540 -706 -10 -11 -58 -65 -108 -120 -174 -192
-276 -280 -379 -326 -25 -11 -46 -21 -46 -23 0 -8 274 -413 293 -434 37 -40
56 -26 150 113 124 183 209 328 328 565 177 349 206 426 247 655 29 155 87
300 142 350 18 16 21 15 72 -41 29 -31 85 -91 124 -133 39 -42 122 -134 184
-206 63 -71 159 -179 215 -240 114 -124 180 -202 248 -292 52 -68 110 -103
170 -103 51 0 71 24 91 111 26 110 26 110 43 107 9 -2 25 -33 39 -76 44 -135
76 -172 137 -157 39 10 65 74 83 208 5 36 10 47 24 47 12 0 23 -15 34 -47 10
-27 24 -67 32 -90 8 -23 22 -47 30 -53 35 -30 132 52 183 154 39 79 55 177 48
285 -11 167 -46 237 -286 576 -70 99 -174 248 -231 330 -139 201 -279 399
-499 705 -295 411 -430 587 -533 696 -38 39 -68 74 -68 78 0 4 14 28 32 54 24
35 33 60 36 103 5 64 -10 111 -131 409 -144 355 -273 684 -424 1080 -14 36
-42 112 -63 170 -71 196 -122 301 -194 396 -56 75 -215 219 -258 236 -17 6
-28 17 -28 29 0 35 49 152 87 207 47 69 92 98 224 146 128 46 180 67 197 79
21 16 13 45 -20 69 -32 22 -41 23 -203 22 -93 0 -218 -2 -276 -5 l-106 -4 -84
79 c-111 105 -134 151 -133 266 1 91 1 91 98 295 82 172 83 184 5 166 -66 -16
-217 -13 -273 4 -142 43 -193 134 -280 500 -22 95 -36 105 -140 104 -50 -1
-116 -10 -171 -24z"
    />
    <path
      d="M11512 15670 c-19 -8 -21 -13 -12 -29 5 -11 10 -36 10 -56 0 -23 5
-38 16 -42 24 -9 33 8 36 72 3 64 -5 73 -50 55z"
    />
    <path
      d="M11762 15071 c-92 -32 -160 -99 -169 -168 -15 -110 93 -243 165 -204
27 14 65 14 80 -1 22 -22 14 -73 -15 -101 -96 -90 -168 -147 -201 -159 -23 -8
-83 -13 -157 -13 -137 0 -147 4 -291 102 -82 56 -136 72 -188 59 -27 -7 -37
-44 -13 -50 92 -25 137 -44 208 -88 174 -107 258 -121 437 -73 76 20 117 25
219 25 190 0 214 17 233 166 14 107 39 164 90 205 48 38 64 77 65 151 0 64
-22 103 -71 127 -27 14 -227 40 -304 40 -19 0 -59 -8 -88 -18z"
    />
    <path
      d="M8872 13760 c-133 -40 -344 -162 -429 -248 -97 -99 -130 -166 -228
-457 -37 -110 -89 -261 -117 -335 -27 -74 -67 -182 -88 -240 -41 -111 -86
-240 -168 -480 -27 -80 -59 -172 -70 -205 -39 -114 -100 -280 -161 -440 -76
-201 -101 -296 -108 -410 -6 -104 11 -183 59 -279 28 -56 207 -329 408 -621
103 -151 273 -408 419 -635 62 -96 171 -260 242 -365 71 -104 170 -255 220
-335 276 -443 290 -462 345 -485 51 -21 127 -28 147 -13 10 8 28 50 41 98 32
118 50 117 76 -5 17 -79 24 -92 56 -98 46 -9 115 23 169 77 55 55 68 87 85
205 11 81 15 91 34 91 14 0 34 -42 76 -157 28 -77 45 -81 100 -20 81 88 116
198 107 337 -9 154 -25 192 -297 735 -142 281 -272 537 -290 570 -18 33 -56
103 -85 155 -29 52 -72 131 -95 175 -24 44 -63 115 -87 158 -24 42 -54 96 -67
120 -204 373 -241 449 -232 472 4 12 10 14 19 7 22 -18 207 -82 236 -82 16 0
40 9 55 21 40 32 125 217 321 706 42 103 85 207 95 230 11 24 20 45 20 49 0 3
11 29 24 57 27 60 126 311 149 377 40 120 67 273 67 385 0 403 -262 780 -613
881 -33 10 -111 17 -212 20 -137 3 -169 1 -223 -16z"
    />
    <path
      d="M7827 9934 c-18 -18 -2 -487 23 -719 14 -126 60 -413 82 -510 18 -82
71 -288 108 -420 43 -153 185 -519 229 -588 10 -15 40 -46 67 -68 27 -23 135
-125 240 -227 105 -103 297 -288 426 -412 404 -386 1391 -1381 1429 -1440 35
-53 121 -253 275 -635 85 -213 99 -246 126 -305 11 -25 31 -72 44 -105 21 -57
48 -122 80 -192 8 -17 14 -34 14 -37 0 -3 9 -25 19 -49 21 -46 90 -214 199
-487 246 -612 318 -781 352 -822 l28 -33 483 0 c466 0 485 1 515 20 31 20 256
185 558 410 89 66 230 171 314 233 84 62 162 128 173 145 17 27 20 44 16 107
-5 94 -40 170 -113 249 -74 81 -145 114 -252 119 -97 5 -137 -6 -281 -77 -105
-52 -192 -85 -253 -96 -47 -9 -144 36 -209 97 l-46 43 -12 205 c-7 113 -16
248 -21 300 -6 52 -14 149 -20 215 -25 313 -30 366 -40 445 -5 47 -16 146 -25
220 -28 249 -46 352 -90 500 -9 30 -20 69 -24 85 -33 113 -147 387 -231 555
-141 282 -268 470 -520 768 -88 105 -165 194 -172 198 -29 18 8 -68 71 -165
81 -125 101 -164 134 -257 14 -38 44 -121 67 -184 80 -218 186 -549 230 -715
4 -16 22 -79 40 -140 18 -60 36 -126 40 -145 4 -19 19 -83 34 -142 42 -170 73
-398 97 -716 9 -113 9 -156 1 -164 -8 -8 -13 -8 -16 3 -40 121 -99 295 -114
334 -46 119 -134 342 -142 360 -6 11 -30 72 -54 135 -24 63 -76 189 -116 280
-40 91 -90 210 -112 265 -22 55 -51 125 -65 155 -14 30 -43 97 -64 149 -84
202 -107 230 -749 906 -142 149 -379 394 -490 506 -122 123 -140 131 -221 98
-128 -51 -348 -112 -467 -129 -100 -15 -176 -3 -267 42 -118 58 -166 118 -522
653 -106 160 -233 351 -283 425 -123 184 -472 712 -486 735 -12 21 -27 29 -37
19z"
    />
    <path
      d="M8337 7333 c-4 -3 -7 -43 -7 -87 0 -97 -23 -297 -43 -381 -23 -92
-54 -184 -113 -339 -112 -291 -179 -397 -419 -661 -55 -61 -131 -146 -170
-190 -38 -44 -131 -147 -205 -230 -74 -83 -166 -186 -205 -230 -38 -44 -88
-100 -111 -125 -125 -137 -234 -259 -273 -304 -24 -28 -100 -111 -169 -185
-164 -173 -181 -197 -182 -244 0 -78 9 -90 535 -627 99 -102 232 -241 295
-310 63 -69 134 -144 157 -167 81 -81 52 -77 562 -74 503 3 500 2 527 66 16
40 18 131 3 195 -22 94 -89 190 -153 217 -132 56 -224 113 -286 175 -125 125
-155 194 -107 249 12 14 106 87 208 161 223 162 270 199 739 573 350 279 615
487 888 698 154 119 212 172 212 194 0 20 -111 135 -584 607 -333 331 -672
661 -886 861 -173 161 -194 177 -213 158z"
    />
  </g>
</svg>
